<?xml version="1.0" encoding="UTF-8" standalone="no"?>
<svg
   class="ionicon"
   viewBox="0 0 512 512"
   version="1.1"
   id="svg1"
   sodipodi:docname="blue-paw.svg"
   inkscape:version="1.4.2 (f4327f4, 2025-05-13)"
   xmlns:inkscape="http://www.inkscape.org/namespaces/inkscape"
   xmlns:sodipodi="http://sodipodi.sourceforge.net/DTD/sodipodi-0.dtd"
   xmlns="http://www.w3.org/2000/svg"
   xmlns:svg="http://www.w3.org/2000/svg">
  <defs
     id="defs1" />
  <sodipodi:namedview
     id="namedview1"
     pagecolor="#ffffff"
     bordercolor="#000000"
     borderopacity="0.25"
     inkscape:showpageshadow="2"
     inkscape:pageopacity="0.0"
     inkscape:pagecheckerboard="0"
     inkscape:deskcolor="#d1d1d1"
     inkscape:zoom="1.5585938"
     inkscape:cx="256.32079"
     inkscape:cy="255.99999"
     inkscape:window-width="1600"
     inkscape:window-height="811"
     inkscape:window-x="-9"
     inkscape:window-y="-9"
     inkscape:window-maximized="1"
     inkscape:current-layer="svg1" />
  <g
     id="g6"
     transform="translate(-0.00466704,-8.0097642)">
    <path
       d="m 65.380859,152 a 46.4,46.4 0 0 0 -17,3.19922 l -0.140625,0.0508 c -11.9,4.75 -21.130156,14.29047 -26.660156,27.48047 -8.38,20 -7.199609,46.75039 3.150391,71.65039 14.33,34.46 42.418672,57.61914 69.888672,57.61914 a 46.4,46.4 0 0 0 16.970699,-3.19922 l 0.14063,-0.0508 c 11.93,-4.79 21.15945,-14.29047 26.68945,-27.48047 8.38,-20 7.19961,-46.75039 -3.15039,-71.65039 C 120.93953,175.15914 92.850859,152 65.380859,152 Z"
       style="fill:#24bbd3"
       id="path6" />
    <path
       d="m 181.49023,48 a 42.88,42.88 0 0 0 -6.33007,0.470703 c -32.37,4.76 -52.53993,44.26 -45.91993,89.999997 2.76,19.2 10.15977,37.08891 20.75977,50.37891 C 161.9,203.77961 176.99953,212 192.51953,212 a 42.88,42.88 0 0 0 6.33008,-0.4707 c 32.37,-4.76 52.53992,-44.26 45.91992,-90 C 241.99953,102.2993 234.6,84.389375 224,71.109375 212.12,56.209375 197.00023,48 181.49023,48 Z"
       style="fill:#24bbd3"
       id="path5" />
    <path
       d="m 330.50977,47.980469 c -15.51,0.02 -30.62977,8.228906 -42.50977,23.128906 -10.6,13.28 -17.99977,31.191405 -20.75977,50.441405 -6.62,45.72 13.54993,85.21852 45.91993,89.97852 A 42.88,42.88 0 0 0 319.49023,212 c 15.53,0 30.61954,-8.22039 42.51954,-23.15039 10.59,-13.29 17.95,-31.18039 20.75,-50.40039 6.62,-45.720001 -13.54993,-85.220001 -45.91993,-90.000001 a 42.88,42.88 0 0 0 -6.33007,-0.46875 z"
       style="fill:#24bbd3"
       id="path4" />
    <path
       d="m 445.91992,152 h 0.64063 a 46.46,46.46 0 0 1 17,3.19922 l 0.16015,0.0606 c 11.9,4.79 21.11992,14.30023 26.66992,27.49023 8.39,19.97 7.25954,46.72961 -2.98046,71.59961 -14.4,34.5 -42.5,57.65039 -70,57.65039 a 46.53,46.53 0 0 1 -17,-3.19922 L 400.2793,308.75 c -11.95,-4.79 -21.18852,-14.3 -26.72852,-27.5 -8.38,-19.96 -7.19031,-46.74063 3.17969,-71.64063 14.14,-34.05 41.94945,-57.19937 69.18945,-57.60937 z"
       style="fill:#24bbd3"
       id="path3" />
    <path
       d="m 256,240 c 42.37,0 58.52906,26.79922 85.28906,71.19922 9.7,16.04 24.55172,24.97015 40.26172,34.41015 18.06,10.86001 36.73883,22.09141 44.79883,44.19141 3.16587,7.95337 4.77828,16.43974 4.75,25 0,35.95 -27.94883,65.19922 -62.29883,65.19922 -17.8,0 -36.60078,-6.14914 -56.55078,-12.61914 -19.15,-6.26 -38.97039,-12.73047 -56.15039,-12.73047 -17.18,0 -37.04953,6.47047 -56.26953,12.73047 -19.99,6.51 -38.88086,12.6582 -56.63086,12.6582 -34.4,0 -62.398439,-29.24922 -62.398439,-65.19922 -0.06233,-8.55381 1.515623,-17.04028 4.648438,-25 8.06,-22.08 26.730781,-33.30015 44.800781,-44.16015 15.76,-9.48 30.63937,-18.42047 40.35937,-34.48047 C 197.42938,266.79922 213.63,240 256,240 Z"
       style="fill:#24bbd3"
       id="path2"
       sodipodi:nodetypes="sccccscscsccccs" />
  </g>
</svg>
