<?xml version="1.0" encoding="UTF-8" standalone="no"?>
<svg
   class="ionicon"
   viewBox="0 0 512 512"
   version="1.1"
   id="svg2"
   sodipodi:docname="instagram.svg"
   inkscape:version="1.4.2 (f4327f4, 2025-05-13)"
   xmlns:inkscape="http://www.inkscape.org/namespaces/inkscape"
   xmlns:sodipodi="http://sodipodi.sourceforge.net/DTD/sodipodi-0.dtd"
   xmlns="http://www.w3.org/2000/svg"
   xmlns:svg="http://www.w3.org/2000/svg">
  <defs
     id="defs2" />
  <sodipodi:namedview
     id="namedview2"
     pagecolor="#ffffff"
     bordercolor="#000000"
     borderopacity="0.25"
     inkscape:showpageshadow="2"
     inkscape:pageopacity="0.0"
     inkscape:pagecheckerboard="0"
     inkscape:deskcolor="#d1d1d1"
     inkscape:zoom="1.5097656"
     inkscape:cx="256"
     inkscape:cy="256"
     inkscape:window-width="1920"
     inkscape:window-height="991"
     inkscape:window-x="-9"
     inkscape:window-y="-9"
     inkscape:window-maximized="1"
     inkscape:current-layer="svg2" />
  <path
     d="m 349.33,69.33 c 51.48644,0.153757 93.18624,41.85356 93.34,93.34 v 186.66 c -0.15376,51.48644 -41.85356,93.18624 -93.34,93.34 H 162.67 C 111.18356,442.51624 69.483757,400.81644 69.33,349.33 V 162.67 c 0.153757,-51.48644 41.85356,-93.186243 93.34,-93.34 h 186.66 m 0,-37.33 H 162.67 C 90.8,32 32,90.8 32,162.67 V 349.33 C 32,421.2 90.8,480 162.67,480 H 349.33 C 421.2,480 480,421.2 480,349.33 V 162.67 C 480,90.8 421.2,32 349.33,32 Z"
     id="path1"
     style="fill:#ffffff;fill-opacity:1"
     sodipodi:nodetypes="cccccccccsssssssss" />
  <path
     d="m 377.33,162.67 c -24.94707,0 -37.43609,-30.15988 -19.79798,-47.79798 17.6381,-17.638109 47.79798,-5.14909 47.79798,19.79798 0.0333,15.47773 -12.52227,28.03327 -28,28 z M 256,181.33 c 30.20116,0 57.42874,18.19286 68.98557,46.0946 11.5568,27.90168 5.16677,60.01703 -16.18859,81.37238 -21.35535,21.35536 -53.4707,27.74539 -81.37238,16.18859 C 199.52286,313.42874 181.33,286.20116 181.33,256 181.37409,214.77918 214.77918,181.37409 256,181.33 M 256,144 c -45.29972,0 -86.13926,27.28808 -103.47373,69.13881 -17.33444,41.85065 -7.74981,90.02152 24.28179,122.05313 32.03161,32.0316 80.20248,41.61623 122.05313,24.28179 C 340.71192,342.13926 368,301.29972 368,256 368,194.14411 317.85589,144 256,144 Z"
     id="path2"
     sodipodi:nodetypes="cscccsssccssssss"
     style="fill:#ffffff;fill-opacity:1" />
</svg>
