<?xml version="1.0" encoding="UTF-8" standalone="no"?>
<svg
   version="1.1"
   width="8in"
   height="5.0000005in"
   viewBox="0 0 576.00115 360.00047"
   id="svg82"
   sodipodi:docname="oba.cdr"
   xmlns:inkscape="http://www.inkscape.org/namespaces/inkscape"
   xmlns:sodipodi="http://sodipodi.sourceforge.net/DTD/sodipodi-0.dtd"
   xmlns="http://www.w3.org/2000/svg"
   xmlns:svg="http://www.w3.org/2000/svg">
  <defs
     id="defs82" />
  <sodipodi:namedview
     id="namedview82"
     pagecolor="#ffffff"
     bordercolor="#000000"
     borderopacity="0.25"
     inkscape:showpageshadow="2"
     inkscape:pageopacity="0.0"
     inkscape:pagecheckerboard="0"
     inkscape:deskcolor="#d1d1d1"
     inkscape:document-units="in">
    <inkscape:page
       x="3.032532e-06"
       y="0"
       width="576.00116"
       height="360.00046"
       id="page85"
       margin="0"
       bleed="0" />
  </sodipodi:namedview>
  <g
     id="Layer1000-9"
     transform="translate(-1209.2106,-103.60951)">
    <g
       id="Layer1001-4"
       transform="matrix(1.9576876,0,0,1.8927958,-176.09811,-153.93675)">
      <g
         id="Layer1002-8">
        <g
           id="Layer1003-8">
          <path
             d="m 165.0328,241.4203 c -13.6936,-0.2699 -25.4203,4.2015 -35.1825,13.4209 -9.7591,9.2191 -14.7739,20.6759 -15.0437,34.3695 -0.273,13.6939 4.335,25.2839 13.8242,34.7763 9.4924,9.4892 21.0824,14.3702 34.776,14.6403 13.6939,0.273 25.4206,-4.2018 35.1828,-13.4209 9.7591,-9.3557 14.7767,-20.8122 15.0469,-34.3695 0.2729,-13.5575 -4.4065,-25.0823 -14.0321,-34.5713 -9.4893,-9.6259 -21.0141,-14.5755 -34.5716,-14.8453 z"
             style="fill:#f8a600;fill-rule:evenodd"
             id="path1-2" />
          <path
             d="m 268.933,268.2587 c 0,-6.414 -2.1172,-12.0583 -6.349,-16.9362 -4.2347,-4.875 -9.559,-7.8264 -15.9758,-8.8514 l -34.4477,-1.1571 5.3861,96.2305 h 13.8583 c 1.4094,0.2585 2.8222,0.3878 4.2347,0.3878 7.3125,0 13.5354,-2.5022 18.6687,-7.5062 5.1304,-5.0042 7.6971,-11.1625 7.6971,-18.4779 0,-7.8264 -2.9514,-14.3694 -8.8543,-19.6322 4.7489,-2.0525 8.5343,-5.2594 11.3565,-9.6205 2.9514,-4.3639 4.4254,-9.1743 4.4254,-14.4368 z m -30.022,1.9264 c 4.1057,0.2554 6.1583,2.5019 6.1583,6.7368 0,1.9236 -0.7693,3.5269 -2.3111,4.8104 -1.4097,1.2833 -3.0779,1.7972 -5.0043,1.5387 z m 6.734,42.1478 c -1.9236,4.1054 -4.875,5.8382 -8.8515,5.1979 l 1.1543,-21.3645 c 2.5668,0.2583 4.684,1.5415 6.3522,3.85 1.6679,2.1819 2.5021,4.6194 2.5021,7.3123 0,1.6682 -0.3849,3.3364 -1.1571,5.0043 z"
             style="fill:#f8a600;fill-rule:evenodd"
             id="path2-4" />
          <path
             d="m 309.4662,334.6702 23.7895,0.5502 c -2.0719,-14.5213 -4.6355,-27.6965 -7.685,-39.5314 -6.9534,-27.2078 -14.8255,-43.0081 -23.6081,-47.4007 -5.3702,5.9788 -10.3102,12.7508 -14.8257,20.3131 -10.98,18.3022 -19.1538,39.1654 -24.5212,62.5921 l 29.6456,2.7451 c 0.6115,-2.8066 1.2818,-5.7975 2.0135,-8.9669 l 14.4598,-1.4661 c 0.2429,2.1977 0.4858,5.9174 0.7316,11.1646 z m -11.1648,-25.2559 c 0.8546,-2.9293 2.3794,-7.8692 4.5743,-14.8229 1.5862,4.1471 2.9293,9.21 4.0269,15.1889 z"
             style="fill:#f8a600;fill-rule:evenodd"
             id="path3-5" />
          <path
             d="m 360.9904,310.2358 6.8182,-83.8043 -32.8218,0.8467 6.5463,81.9431 z m -10.8297,1.5231 c -4.1718,0.3384 -7.613,2.086 -10.3184,5.2432 -2.5946,3.1598 -3.7228,6.8258 -3.3846,10.9976 0.3382,4.1743 2.086,7.613 5.2458,10.3209 3.1572,2.5946 6.823,3.7228 10.9976,3.3846 4.058,-0.3407 7.4426,-2.0886 10.1506,-5.2458 2.7056,-3.1572 3.8905,-6.7688 3.5523,-10.8269 -0.3381,-4.1746 -2.086,-7.613 -5.2458,-10.3213 -3.1572,-2.7082 -6.823,-3.8902 -10.9975,-3.5523 z"
             style="fill:#f8a600;fill-rule:evenodd"
             id="path4-5" />
          <g
             id="Layer1004-1">
            <g
               id="Layer1005-7">
              <path
                 d="m 156.1592,347.8388 c -3.272,0 -5.2291,2.2071 -5.2291,4.8555 0,2.6484 1.9571,4.8551 5.2291,4.8551 3.2715,0 5.2285,-2.2067 5.2285,-4.8551 0,-2.6484 -1.957,-4.8555 -5.2285,-4.8555 z m 0,1.3243 c 2.3392,0 3.3174,1.7524 3.3174,3.5312 0,1.7784 -0.9782,3.5308 -3.3174,3.5308 -2.3394,0 -3.3179,-1.7524 -3.3179,-3.5308 0,-1.7788 0.9785,-3.5312 3.3179,-3.5312 z"
                 style="fill:#1b1918;fill-rule:evenodd"
                 id="path5-1" />
              <path
                 d="m 162.9363,357.3286 h 1.743 v -3.1935 c 0,-1.48 0.9479,-2.2977 2.1404,-2.2977 0.2447,0 0.5046,0.0391 0.7495,0.0649 v -1.4281 c -0.1533,-0.0131 -0.2602,-0.0389 -0.6576,-0.0389 -1.0704,0 -2.1098,0.766 -2.3085,1.4797 h -0.0307 v -1.298 h -1.6361 z"
                 style="fill:#1b1918;fill-rule:evenodd"
                 id="path6-1" />
              <path
                 d="m 171.8059,356.1605 c -1.4525,0 -2.0795,-1.1166 -2.0795,-2.2201 0,-1.1163 0.5352,-2.3366 2.0795,-2.3366 1.5134,0 2.1251,1.0644 2.1251,2.2198 0,1.1424 -0.5811,2.3369 -2.1251,2.3369 z m 3.8679,-5.5435 h -1.7428 v 0.9219 h -0.0306 c -0.4433,-0.7532 -1.3456,-1.1036 -2.3394,-1.1036 -2.2476,0 -3.5773,1.558 -3.5773,3.3622 0,1.9216 1.0394,3.5311 3.5467,3.5311 0.9785,0 1.8807,-0.441 2.37,-1.1812 h 0.0306 v 1.0256 c 0,1.1033 -0.627,1.7136 -2.0336,1.7136 -0.8866,0 -1.6817,-0.1429 -1.8955,-0.9865 h -1.7433 c 0.1531,1.5707 1.9417,2.09 3.5317,2.09 2.4925,0 3.8835,-0.9998 3.8835,-3.0118 z"
                 style="fill:#1b1918;fill-rule:evenodd"
                 id="path7-5" />
              <path
                 d="m 182.3598,355.07 c 0,0.9346 -1.1925,1.2722 -1.9567,1.2722 -0.6117,0 -1.6058,-0.1948 -1.6058,-0.8569 0,-0.779 0.6729,-1.0126 1.4221,-1.1163 0.7645,-0.1171 1.6053,-0.1038 2.1404,-0.4025 z m 1.7428,-2.6873 c 0,-1.4153 -1.6206,-1.9474 -3.1646,-1.9474 -1.743,0 -3.4705,0.5063 -3.5929,2.2329 h 1.7427 c 0.0765,-0.7268 0.7645,-1.0644 1.7433,-1.0644 0.703,0 1.6359,0.1428 1.6359,0.9088 0,0.8696 -1.1163,0.7528 -2.3698,0.9473 -1.468,0.1429 -3.0427,0.4156 -3.0427,2.0903 0,1.3113 1.2844,1.9604 2.7063,1.9604 0.9326,0 2.0486,-0.2469 2.7368,-0.8181 0.1375,0.6103 0.6418,0.8181 1.3453,0.8181 0.2903,0 0.8411,-0.091 1.1007,-0.1689 v -1.0256 c -0.1834,0.0261 -0.3211,0.0261 -0.428,0.0261 -0.3212,0 -0.413,-0.1429 -0.413,-0.5066 z"
                 style="fill:#1b1918;fill-rule:evenodd"
                 id="path8-2" />
              <path
                 d="m 186.0321,357.3286 h 1.743 v -3.9594 c 0,-0.9865 0.7495,-1.7654 1.9112,-1.7654 1.0244,0 1.5137,0.4541 1.544,1.5057 v 4.2191 h 1.7433 v -4.6085 c 0,-1.5058 -1.0859,-2.2848 -2.7981,-2.2848 -1.0397,0 -1.9417,0.4544 -2.4616,1.1946 l -0.0303,-0.0261 v -0.9868 h -1.6515 z"
                 style="fill:#1b1918;fill-rule:evenodd"
                 id="path9-7" />
              <path
                 d="m 194.9066,357.3286 h 1.743 v -6.7116 h -1.743 z m 0,-7.867 h 1.743 v -1.402 h -1.743 z"
                 style="fill:#1b1918;fill-rule:evenodd"
                 id="path10-6" />
              <path
                 d="m 198.3229,351.7852 h 4.0665 l -4.3724,4.5048 v 1.0386 h 6.9565 v -1.1681 h -4.7551 l 4.5258,-4.5048 v -1.0387 h -6.4213 z"
                 style="fill:#1b1918;fill-rule:evenodd"
                 id="path11-1" />
              <path
                 d="m 211.1737,355.07 c 0,0.9346 -1.1925,1.2722 -1.9567,1.2722 -0.6117,0 -1.6056,-0.1948 -1.6056,-0.8569 0,-0.779 0.673,-1.0126 1.4219,-1.1163 0.7645,-0.1171 1.6055,-0.1038 2.1404,-0.4025 z m 1.7431,-2.6873 c 0,-1.4153 -1.6206,-1.9474 -3.1649,-1.9474 -1.7428,0 -3.4705,0.5063 -3.5929,2.2329 h 1.743 c 0.0765,-0.7268 0.7645,-1.0644 1.743,-1.0644 0.7033,0 1.6359,0.1428 1.6359,0.9088 0,0.8696 -1.116,0.7528 -2.3698,0.9473 -1.4678,0.1429 -3.0424,0.4156 -3.0424,2.0903 0,1.3113 1.2841,1.9604 2.7059,1.9604 0.9329,0 2.0489,-0.2469 2.7369,-0.8181 0.1375,0.6103 0.642,0.8181 1.3453,0.8181 0.2906,0 0.8411,-0.091 1.101,-0.1689 v -1.0256 c -0.1837,0.0261 -0.3212,0.0261 -0.428,0.0261 -0.3215,0 -0.413,-0.1429 -0.413,-0.5066 z"
                 style="fill:#1b1918;fill-rule:evenodd"
                 id="path12-4" />
              <path
                 d="m 216.4822,359.9252 c 0.3974,0.1947 1.1163,0.2724 1.5749,0.2724 0.8867,0 1.8499,-0.2855 1.8499,-1.1682 0,-0.6622 -0.7033,-0.9606 -1.2997,-0.9606 -0.2293,0 -0.3821,0 -0.5046,0.0388 v -0.0261 l 0.688,-0.7529 h -0.7336 l -1.0094,1.1424 0.3365,0.2466 c 0.1836,-0.0907 0.3977,-0.1295 0.5964,-0.1295 0.3362,0 0.7032,0.1686 0.7032,0.4932 0,0.4413 -0.5045,0.5321 -0.9326,0.5321 -0.3364,0 -0.6729,-0.1165 -0.9938,-0.2075 z m 5.4428,-7.0623 c -0.1681,-1.6486 -1.7275,-2.4276 -3.5623,-2.4276 -2.5991,0 -3.8985,1.5838 -3.8985,3.6088 0,1.9735 1.3606,3.4665 3.8372,3.4665 2.0336,0 3.3027,-0.9606 3.6236,-2.7003 h -1.743 c -0.1681,0.9607 -0.8714,1.5319 -1.8806,1.5319 -1.5134,0 -2.0945,-1.1815 -2.0945,-2.2981 0,-2.0381 1.2691,-2.4403 2.1711,-2.4403 0.9632,0 1.6665,0.4413 1.804,1.2591 z"
                 style="fill:#1b1918;fill-rule:evenodd"
                 id="path13-2" />
              <path
                 d="m 228.5787,348.0596 c -0.1068,0.3373 -0.3208,0.5712 -0.7642,0.5712 -0.2905,0 -0.5964,-0.1298 -0.9479,-0.2466 -0.3518,-0.1298 -0.7492,-0.2466 -1.2387,-0.2466 -0.9323,0 -1.4675,0.8047 -1.5897,1.4669 h 0.8711 c 0,-0.2466 0.2905,-0.5323 0.6423,-0.5323 0.2906,0 0.6574,0.1167 1.0551,0.2338 0.3821,0.1296 0.7951,0.2466 1.1313,0.2466 0.5505,0 0.9326,-0.1689 1.1925,-0.4413 0.2753,-0.26 0.4281,-0.6364 0.5046,-1.0517 z m -0.3058,7.0104 c 0,0.9346 -1.1926,1.2722 -1.9568,1.2722 -0.6117,0 -1.6055,-0.1948 -1.6055,-0.8569 0,-0.779 0.6729,-1.0126 1.4221,-1.1163 0.7645,-0.1171 1.6053,-0.1038 2.1402,-0.4025 z m 1.743,-2.6873 c 0,-1.4153 -1.6206,-1.9474 -3.1649,-1.9474 -1.7427,0 -3.4704,0.5063 -3.5929,2.2329 h 1.743 c 0.0766,-0.7268 0.7645,-1.0644 1.7431,-1.0644 0.7032,0 1.6358,0.1428 1.6358,0.9088 0,0.8696 -1.116,0.7528 -2.3697,0.9473 -1.4678,0.1429 -3.0427,0.4156 -3.0427,2.0903 0,1.3113 1.2843,1.9604 2.7062,1.9604 0.9329,0 2.0489,-0.2469 2.7368,-0.8181 0.1378,0.6103 0.6421,0.8181 1.3454,0.8181 0.2905,0 0.841,-0.091 1.1009,-0.1689 v -1.0256 c -0.1836,0.0261 -0.3211,0.0261 -0.428,0.0261 -0.3214,0 -0.413,-0.1429 -0.413,-0.5066 z"
                 style="fill:#1b1918;fill-rule:evenodd"
                 id="path14-3" />
              <path
                 d="m 235.569,356.3422 c -1.5594,0 -2.2476,-1.2076 -2.2476,-2.3757 0,-1.1554 0.6882,-2.3627 2.2476,-2.3627 1.5596,0 2.2473,1.2073 2.2473,2.3627 0,1.1681 -0.6877,2.3757 -2.2473,2.3757 z m 0,1.1684 c 2.5378,0 3.9903,-1.4802 3.9903,-3.5441 0,-2.0515 -1.4525,-3.5312 -3.9903,-3.5312 -2.5379,0 -3.9906,1.4797 -3.9906,3.5312 0,2.0639 1.4527,3.5441 3.9906,3.5441 z"
                 style="fill:#1b1918;fill-rule:evenodd"
                 id="path15-2" />
              <path
                 d="m 247.5128,353.1095 h 3.3789 c 1.1619,0 1.8348,0.5194 1.8348,1.4281 0,0.9346 -0.6729,1.467 -1.8348,1.467 h -3.3789 z m -1.9112,4.2191 h 5.0148 c 2.8284,0 4.021,-1.1293 4.021,-2.5835 0,-1.2591 -0.7186,-2.1418 -2.0486,-2.3884 v -0.0258 c 0.9938,-0.3637 1.5593,-1.0386 1.5593,-1.9735 0,-1.5449 -1.2844,-2.2978 -3.2411,-2.2978 h -5.3054 z m 1.9112,-7.9449 h 3.1189 c 1.0398,0 1.6053,0.3376 1.6053,1.2722 0,0.8308 -0.688,1.2855 -1.6053,1.2855 h -3.1189 z"
                 style="fill:#1b1918;fill-rule:evenodd"
                 id="path16-2" />
              <path
                 d="m 263.3414,354.3559 c 0.2906,-2.0123 -1.2384,-3.9206 -3.7304,-3.9206 -2.3547,0 -3.8222,1.6356 -3.8222,3.5442 0,2.0639 1.3912,3.5311 3.8679,3.5311 1.7277,0 3.1955,-0.8181 3.5779,-2.285 h -1.6515 c -0.3056,0.7401 -0.9173,1.1166 -1.9264,1.1166 -1.4525,0 -2.1249,-0.9349 -2.1249,-1.9863 z m -5.8096,-0.9737 c 0.0456,-0.9995 0.8711,-1.7784 2.0792,-1.7784 1.1773,0 1.9262,0.8436 1.9874,1.7784 z"
                 style="fill:#1b1918;fill-rule:evenodd"
                 id="path17-1" />
              <path
                 d="m 264.7205,357.3286 h 1.743 v -3.9855 c 0,-1.1163 0.8254,-1.7393 1.7277,-1.7393 1.0548,0 1.3913,0.4932 1.3913,1.415 v 4.3098 h 1.743 v -3.9333 c 0,-1.1296 0.5043,-1.7915 1.6818,-1.7915 1.3603,0 1.4369,0.7398 1.4369,1.8042 v 3.9206 h 1.743 v -4.6343 c 0,-1.6359 -0.9785,-2.259 -2.645,-2.259 -1.1466,0 -1.8958,0.4284 -2.4767,1.1163 -0.3517,-0.7659 -1.2537,-1.1163 -2.2169,-1.1163 -1.2538,0 -1.9112,0.4544 -2.431,1.1163 h -0.0459 v -0.9346 h -1.6512 z"
                 style="fill:#1b1918;fill-rule:evenodd"
                 id="path18-6" />
              <path
                 d="m 277.9044,354.4985 h 4.449 v -1.402 h -4.449 z"
                 style="fill:#1b1918;fill-rule:evenodd"
                 id="path19-8" />
              <path
                 d="m 288.2123,349.6564 h 0.0306 0.0153 l 1.6359,3.9855 h -3.333 z m -5.1678,7.6722 h 1.9723 l 1.0245,-2.4534 h 4.3574 l 1.0244,2.4534 h 2.0486 l -4.2046,-9.269 h -2.0333 z"
                 style="fill:#1b1918;fill-rule:evenodd"
                 id="path20-5" />
              <path
                 d="m 294.3207,357.3286 h 1.743 v -3.9594 c 0,-0.9865 0.7492,-1.7654 1.9111,-1.7654 1.0242,0 1.5135,0.4541 1.5441,1.5057 v 4.2191 h 1.743 v -4.6085 c 0,-1.5058 -1.0857,-2.2848 -2.7981,-2.2848 -1.0395,0 -1.9417,0.4544 -2.4613,1.1946 l -0.0306,-0.0261 v -0.9868 h -1.6512 z"
                 style="fill:#1b1918;fill-rule:evenodd"
                 id="path21-7" />
              <path
                 d="m 303.1951,357.3286 h 1.7428 v -6.7116 h -1.7428 z m 0,-7.867 h 1.7428 v -1.402 h -1.7428 z"
                 style="fill:#1b1918;fill-rule:evenodd"
                 id="path22-6" />
              <path
                 d="m 306.8864,357.3286 h 1.7427 v -3.9855 c 0,-1.1163 0.8258,-1.7393 1.7278,-1.7393 1.055,0 1.3915,0.4932 1.3915,1.415 v 4.3098 h 1.7427 v -3.9333 c 0,-1.1296 0.5046,-1.7915 1.6818,-1.7915 1.3606,0 1.4372,0.7398 1.4372,1.8042 v 3.9206 h 1.743 v -4.6343 c 0,-1.6359 -0.9785,-2.259 -2.6453,-2.259 -1.1466,0 -1.8955,0.4284 -2.4766,1.1163 -0.3518,-0.7659 -1.2535,-1.1163 -2.2167,-1.1163 -1.2538,0 -1.9114,0.4544 -2.431,1.1163 h -0.0459 v -0.9346 h -1.6512 z"
                 style="fill:#1b1918;fill-rule:evenodd"
                 id="path23-1" />
              <path
                 d="m 325.1157,355.07 c 0,0.9346 -1.1928,1.2722 -1.957,1.2722 -0.6117,0 -1.6056,-0.1948 -1.6056,-0.8569 0,-0.779 0.673,-1.0126 1.4219,-1.1163 0.7645,-0.1171 1.6055,-0.1038 2.1407,-0.4025 z m 1.7428,-2.6873 c 0,-1.4153 -1.6206,-1.9474 -3.1649,-1.9474 -1.7428,0 -3.4705,0.5063 -3.5927,2.2329 h 1.7428 c 0.0765,-0.7268 0.7645,-1.0644 1.743,-1.0644 0.7033,0 1.6359,0.1428 1.6359,0.9088 0,0.8696 -1.116,0.7528 -2.3698,0.9473 -1.4678,0.1429 -3.0424,0.4156 -3.0424,2.0903 0,1.3113 1.2841,1.9604 2.7062,1.9604 0.9326,0 2.0486,-0.2469 2.7366,-0.8181 0.1378,0.6103 0.642,0.8181 1.3453,0.8181 0.2906,0 0.8411,-0.091 1.101,-0.1689 v -1.0256 c -0.1837,0.0261 -0.3212,0.0261 -0.428,0.0261 -0.3212,0 -0.413,-0.1429 -0.413,-0.5066 z"
                 style="fill:#1b1918;fill-rule:evenodd"
                 id="path24-8" />
              <path
                 d="m 328.8339,357.3286 h 1.743 v -9.269 h -1.743 z"
                 style="fill:#1b1918;fill-rule:evenodd"
                 id="path25-9" />
            </g>
          </g>
        </g>
        <g
           id="Layer1006-2">
          <g
             id="Layer1007-7">
            <path
               d="m 137.2884,278.4543 c 0,-3.5886 2.9095,-6.4981 6.4982,-6.4981 3.5889,0 6.4981,2.9095 6.4981,6.4981 0,3.589 -2.9092,6.4982 -6.4981,6.4982 -3.5887,0 -6.4982,-2.9092 -6.4982,-6.4982 z"
               style="fill:#1b1918;fill-rule:evenodd"
               id="path26-9" />
          </g>
          <g
             id="Layer1008-5">
            <path
               d="m 150.5211,268.321 c 0,-3.5889 2.9092,-6.4981 6.4981,-6.4981 3.5887,0 6.4982,2.9092 6.4982,6.4981 0,3.589 -2.9095,6.4982 -6.4982,6.4982 -3.5889,0 -6.4981,-2.9092 -6.4981,-6.4982 z"
               style="fill:#1b1918;fill-rule:evenodd"
               id="path27-4" />
          </g>
          <g
             id="Layer1009-3">
            <path
               d="m 165.4569,267.719 c 0,-3.589 2.9094,-6.4985 6.4981,-6.4985 3.5889,0 6.4981,2.9095 6.4981,6.4985 0,3.5886 -2.9092,6.4978 -6.4981,6.4978 -3.5887,0 -6.4981,-2.9092 -6.4981,-6.4978 z"
               style="fill:#1b1918;fill-rule:evenodd"
               id="path28-1" />
          </g>
          <g
             id="Layer1010-2">
            <path
               d="m 178.3619,277.8523 c 0,-3.589 2.9092,-6.4982 6.4981,-6.4982 3.5889,0 6.4981,2.9092 6.4981,6.4982 0,3.5886 -2.9092,6.4981 -6.4981,6.4981 -3.5889,0 -6.4981,-2.9095 -6.4981,-6.4981 z"
               style="fill:#1b1918;fill-rule:evenodd"
               id="path29-3" />
          </g>
          <g
             id="Layer1011-3">
            <path
               d="m 146.8159,295.6535 c 0,-9.9677 8.0805,-18.0479 18.0482,-18.0479 9.9675,0 18.0479,8.0802 18.0479,18.0479 0,9.9678 -8.0804,18.0479 -18.0479,18.0479 -9.9677,0 -18.0482,-8.0801 -18.0482,-18.0479 z"
               style="fill:#1b1918;fill-rule:evenodd"
               id="path30-4" />
          </g>
        </g>
      </g>
    </g>
    <g
       id="Layer1001-4-6"
       transform="matrix(1.9576876,0,0,1.8927958,1024.8173,-271.57474)">
      <g
         id="Layer1002-8-5">
        <g
           id="Layer1003-8-7">
          <path
             d="m 165.0328,241.4203 c -13.6936,-0.2699 -25.4203,4.2015 -35.1825,13.4209 -9.7591,9.2191 -14.7739,20.6759 -15.0437,34.3695 -0.273,13.6939 4.335,25.2839 13.8242,34.7763 9.4924,9.4892 21.0824,14.3702 34.776,14.6403 13.6939,0.273 25.4206,-4.2018 35.1828,-13.4209 9.7591,-9.3557 14.7767,-20.8122 15.0469,-34.3695 0.2729,-13.5575 -4.4065,-25.0823 -14.0321,-34.5713 -9.4893,-9.6259 -21.0141,-14.5755 -34.5716,-14.8453 z"
             style="fill:#f8a600;fill-rule:evenodd"
             id="path1-2-5" />
          <path
             d="m 268.933,268.2587 c 0,-6.414 -2.1172,-12.0583 -6.349,-16.9362 -4.2347,-4.875 -9.559,-7.8264 -15.9758,-8.8514 l -34.4477,-1.1571 5.3861,96.2305 h 13.8583 c 1.4094,0.2585 2.8222,0.3878 4.2347,0.3878 7.3125,0 13.5354,-2.5022 18.6687,-7.5062 5.1304,-5.0042 7.6971,-11.1625 7.6971,-18.4779 0,-7.8264 -2.9514,-14.3694 -8.8543,-19.6322 4.7489,-2.0525 8.5343,-5.2594 11.3565,-9.6205 2.9514,-4.3639 4.4254,-9.1743 4.4254,-14.4368 z m -30.022,1.9264 c 4.1057,0.2554 6.1583,2.5019 6.1583,6.7368 0,1.9236 -0.7693,3.5269 -2.3111,4.8104 -1.4097,1.2833 -3.0779,1.7972 -5.0043,1.5387 z m 6.734,42.1478 c -1.9236,4.1054 -4.875,5.8382 -8.8515,5.1979 l 1.1543,-21.3645 c 2.5668,0.2583 4.684,1.5415 6.3522,3.85 1.6679,2.1819 2.5021,4.6194 2.5021,7.3123 0,1.6682 -0.3849,3.3364 -1.1571,5.0043 z"
             style="fill:#f8a600;fill-rule:evenodd"
             id="path2-4-4" />
          <path
             d="m 309.4662,334.6702 23.7895,0.5502 c -2.0719,-14.5213 -4.6355,-27.6965 -7.685,-39.5314 -6.9534,-27.2078 -14.8255,-43.0081 -23.6081,-47.4007 -5.3702,5.9788 -10.3102,12.7508 -14.8257,20.3131 -10.98,18.3022 -19.1538,39.1654 -24.5212,62.5921 l 29.6456,2.7451 c 0.6115,-2.8066 1.2818,-5.7975 2.0135,-8.9669 l 14.4598,-1.4661 c 0.2429,2.1977 0.4858,5.9174 0.7316,11.1646 z m -11.1648,-25.2559 c 0.8546,-2.9293 2.3794,-7.8692 4.5743,-14.8229 1.5862,4.1471 2.9293,9.21 4.0269,15.1889 z"
             style="fill:#f8a600;fill-rule:evenodd"
             id="path3-5-1" />
          <path
             d="m 360.9904,310.2358 6.8182,-83.8043 -32.8218,0.8467 6.5463,81.9431 z m -10.8297,1.5231 c -4.1718,0.3384 -7.613,2.086 -10.3184,5.2432 -2.5946,3.1598 -3.7228,6.8258 -3.3846,10.9976 0.3382,4.1743 2.086,7.613 5.2458,10.3209 3.1572,2.5946 6.823,3.7228 10.9976,3.3846 4.058,-0.3407 7.4426,-2.0886 10.1506,-5.2458 2.7056,-3.1572 3.8905,-6.7688 3.5523,-10.8269 -0.3381,-4.1746 -2.086,-7.613 -5.2458,-10.3213 -3.1572,-2.7082 -6.823,-3.8902 -10.9975,-3.5523 z"
             style="fill:#f8a600;fill-rule:evenodd"
             id="path4-5-2" />
          <g
             id="Layer1004-1-0">
            <g
               id="Layer1005-7-0">
              <path
                 d="m 156.1592,347.8388 c -3.272,0 -5.2291,2.2071 -5.2291,4.8555 0,2.6484 1.9571,4.8551 5.2291,4.8551 3.2715,0 5.2285,-2.2067 5.2285,-4.8551 0,-2.6484 -1.957,-4.8555 -5.2285,-4.8555 z m 0,1.3243 c 2.3392,0 3.3174,1.7524 3.3174,3.5312 0,1.7784 -0.9782,3.5308 -3.3174,3.5308 -2.3394,0 -3.3179,-1.7524 -3.3179,-3.5308 0,-1.7788 0.9785,-3.5312 3.3179,-3.5312 z"
                 style="fill:#1b1918;fill-rule:evenodd"
                 id="path5-1-1" />
              <path
                 d="m 162.9363,357.3286 h 1.743 v -3.1935 c 0,-1.48 0.9479,-2.2977 2.1404,-2.2977 0.2447,0 0.5046,0.0391 0.7495,0.0649 v -1.4281 c -0.1533,-0.0131 -0.2602,-0.0389 -0.6576,-0.0389 -1.0704,0 -2.1098,0.766 -2.3085,1.4797 h -0.0307 v -1.298 h -1.6361 z"
                 style="fill:#1b1918;fill-rule:evenodd"
                 id="path6-1-4" />
              <path
                 d="m 171.8059,356.1605 c -1.4525,0 -2.0795,-1.1166 -2.0795,-2.2201 0,-1.1163 0.5352,-2.3366 2.0795,-2.3366 1.5134,0 2.1251,1.0644 2.1251,2.2198 0,1.1424 -0.5811,2.3369 -2.1251,2.3369 z m 3.8679,-5.5435 h -1.7428 v 0.9219 h -0.0306 c -0.4433,-0.7532 -1.3456,-1.1036 -2.3394,-1.1036 -2.2476,0 -3.5773,1.558 -3.5773,3.3622 0,1.9216 1.0394,3.5311 3.5467,3.5311 0.9785,0 1.8807,-0.441 2.37,-1.1812 h 0.0306 v 1.0256 c 0,1.1033 -0.627,1.7136 -2.0336,1.7136 -0.8866,0 -1.6817,-0.1429 -1.8955,-0.9865 h -1.7433 c 0.1531,1.5707 1.9417,2.09 3.5317,2.09 2.4925,0 3.8835,-0.9998 3.8835,-3.0118 z"
                 style="fill:#1b1918;fill-rule:evenodd"
                 id="path7-5-6" />
              <path
                 d="m 182.3598,355.07 c 0,0.9346 -1.1925,1.2722 -1.9567,1.2722 -0.6117,0 -1.6058,-0.1948 -1.6058,-0.8569 0,-0.779 0.6729,-1.0126 1.4221,-1.1163 0.7645,-0.1171 1.6053,-0.1038 2.1404,-0.4025 z m 1.7428,-2.6873 c 0,-1.4153 -1.6206,-1.9474 -3.1646,-1.9474 -1.743,0 -3.4705,0.5063 -3.5929,2.2329 h 1.7427 c 0.0765,-0.7268 0.7645,-1.0644 1.7433,-1.0644 0.703,0 1.6359,0.1428 1.6359,0.9088 0,0.8696 -1.1163,0.7528 -2.3698,0.9473 -1.468,0.1429 -3.0427,0.4156 -3.0427,2.0903 0,1.3113 1.2844,1.9604 2.7063,1.9604 0.9326,0 2.0486,-0.2469 2.7368,-0.8181 0.1375,0.6103 0.6418,0.8181 1.3453,0.8181 0.2903,0 0.8411,-0.091 1.1007,-0.1689 v -1.0256 c -0.1834,0.0261 -0.3211,0.0261 -0.428,0.0261 -0.3212,0 -0.413,-0.1429 -0.413,-0.5066 z"
                 style="fill:#1b1918;fill-rule:evenodd"
                 id="path8-2-0" />
              <path
                 d="m 186.0321,357.3286 h 1.743 v -3.9594 c 0,-0.9865 0.7495,-1.7654 1.9112,-1.7654 1.0244,0 1.5137,0.4541 1.544,1.5057 v 4.2191 h 1.7433 v -4.6085 c 0,-1.5058 -1.0859,-2.2848 -2.7981,-2.2848 -1.0397,0 -1.9417,0.4544 -2.4616,1.1946 l -0.0303,-0.0261 v -0.9868 h -1.6515 z"
                 style="fill:#1b1918;fill-rule:evenodd"
                 id="path9-7-7" />
              <path
                 d="m 194.9066,357.3286 h 1.743 v -6.7116 h -1.743 z m 0,-7.867 h 1.743 v -1.402 h -1.743 z"
                 style="fill:#1b1918;fill-rule:evenodd"
                 id="path10-6-1" />
              <path
                 d="m 198.3229,351.7852 h 4.0665 l -4.3724,4.5048 v 1.0386 h 6.9565 v -1.1681 h -4.7551 l 4.5258,-4.5048 v -1.0387 h -6.4213 z"
                 style="fill:#1b1918;fill-rule:evenodd"
                 id="path11-1-7" />
              <path
                 d="m 211.1737,355.07 c 0,0.9346 -1.1925,1.2722 -1.9567,1.2722 -0.6117,0 -1.6056,-0.1948 -1.6056,-0.8569 0,-0.779 0.673,-1.0126 1.4219,-1.1163 0.7645,-0.1171 1.6055,-0.1038 2.1404,-0.4025 z m 1.7431,-2.6873 c 0,-1.4153 -1.6206,-1.9474 -3.1649,-1.9474 -1.7428,0 -3.4705,0.5063 -3.5929,2.2329 h 1.743 c 0.0765,-0.7268 0.7645,-1.0644 1.743,-1.0644 0.7033,0 1.6359,0.1428 1.6359,0.9088 0,0.8696 -1.116,0.7528 -2.3698,0.9473 -1.4678,0.1429 -3.0424,0.4156 -3.0424,2.0903 0,1.3113 1.2841,1.9604 2.7059,1.9604 0.9329,0 2.0489,-0.2469 2.7369,-0.8181 0.1375,0.6103 0.642,0.8181 1.3453,0.8181 0.2906,0 0.8411,-0.091 1.101,-0.1689 v -1.0256 c -0.1837,0.0261 -0.3212,0.0261 -0.428,0.0261 -0.3215,0 -0.413,-0.1429 -0.413,-0.5066 z"
                 style="fill:#1b1918;fill-rule:evenodd"
                 id="path12-4-7" />
              <path
                 d="m 216.4822,359.9252 c 0.3974,0.1947 1.1163,0.2724 1.5749,0.2724 0.8867,0 1.8499,-0.2855 1.8499,-1.1682 0,-0.6622 -0.7033,-0.9606 -1.2997,-0.9606 -0.2293,0 -0.3821,0 -0.5046,0.0388 v -0.0261 l 0.688,-0.7529 h -0.7336 l -1.0094,1.1424 0.3365,0.2466 c 0.1836,-0.0907 0.3977,-0.1295 0.5964,-0.1295 0.3362,0 0.7032,0.1686 0.7032,0.4932 0,0.4413 -0.5045,0.5321 -0.9326,0.5321 -0.3364,0 -0.6729,-0.1165 -0.9938,-0.2075 z m 5.4428,-7.0623 c -0.1681,-1.6486 -1.7275,-2.4276 -3.5623,-2.4276 -2.5991,0 -3.8985,1.5838 -3.8985,3.6088 0,1.9735 1.3606,3.4665 3.8372,3.4665 2.0336,0 3.3027,-0.9606 3.6236,-2.7003 h -1.743 c -0.1681,0.9607 -0.8714,1.5319 -1.8806,1.5319 -1.5134,0 -2.0945,-1.1815 -2.0945,-2.2981 0,-2.0381 1.2691,-2.4403 2.1711,-2.4403 0.9632,0 1.6665,0.4413 1.804,1.2591 z"
                 style="fill:#1b1918;fill-rule:evenodd"
                 id="path13-2-7" />
              <path
                 d="m 228.5787,348.0596 c -0.1068,0.3373 -0.3208,0.5712 -0.7642,0.5712 -0.2905,0 -0.5964,-0.1298 -0.9479,-0.2466 -0.3518,-0.1298 -0.7492,-0.2466 -1.2387,-0.2466 -0.9323,0 -1.4675,0.8047 -1.5897,1.4669 h 0.8711 c 0,-0.2466 0.2905,-0.5323 0.6423,-0.5323 0.2906,0 0.6574,0.1167 1.0551,0.2338 0.3821,0.1296 0.7951,0.2466 1.1313,0.2466 0.5505,0 0.9326,-0.1689 1.1925,-0.4413 0.2753,-0.26 0.4281,-0.6364 0.5046,-1.0517 z m -0.3058,7.0104 c 0,0.9346 -1.1926,1.2722 -1.9568,1.2722 -0.6117,0 -1.6055,-0.1948 -1.6055,-0.8569 0,-0.779 0.6729,-1.0126 1.4221,-1.1163 0.7645,-0.1171 1.6053,-0.1038 2.1402,-0.4025 z m 1.743,-2.6873 c 0,-1.4153 -1.6206,-1.9474 -3.1649,-1.9474 -1.7427,0 -3.4704,0.5063 -3.5929,2.2329 h 1.743 c 0.0766,-0.7268 0.7645,-1.0644 1.7431,-1.0644 0.7032,0 1.6358,0.1428 1.6358,0.9088 0,0.8696 -1.116,0.7528 -2.3697,0.9473 -1.4678,0.1429 -3.0427,0.4156 -3.0427,2.0903 0,1.3113 1.2843,1.9604 2.7062,1.9604 0.9329,0 2.0489,-0.2469 2.7368,-0.8181 0.1378,0.6103 0.6421,0.8181 1.3454,0.8181 0.2905,0 0.841,-0.091 1.1009,-0.1689 v -1.0256 c -0.1836,0.0261 -0.3211,0.0261 -0.428,0.0261 -0.3214,0 -0.413,-0.1429 -0.413,-0.5066 z"
                 style="fill:#1b1918;fill-rule:evenodd"
                 id="path14-3-7" />
              <path
                 d="m 235.569,356.3422 c -1.5594,0 -2.2476,-1.2076 -2.2476,-2.3757 0,-1.1554 0.6882,-2.3627 2.2476,-2.3627 1.5596,0 2.2473,1.2073 2.2473,2.3627 0,1.1681 -0.6877,2.3757 -2.2473,2.3757 z m 0,1.1684 c 2.5378,0 3.9903,-1.4802 3.9903,-3.5441 0,-2.0515 -1.4525,-3.5312 -3.9903,-3.5312 -2.5379,0 -3.9906,1.4797 -3.9906,3.5312 0,2.0639 1.4527,3.5441 3.9906,3.5441 z"
                 style="fill:#1b1918;fill-rule:evenodd"
                 id="path15-2-3" />
              <path
                 d="m 247.5128,353.1095 h 3.3789 c 1.1619,0 1.8348,0.5194 1.8348,1.4281 0,0.9346 -0.6729,1.467 -1.8348,1.467 h -3.3789 z m -1.9112,4.2191 h 5.0148 c 2.8284,0 4.021,-1.1293 4.021,-2.5835 0,-1.2591 -0.7186,-2.1418 -2.0486,-2.3884 v -0.0258 c 0.9938,-0.3637 1.5593,-1.0386 1.5593,-1.9735 0,-1.5449 -1.2844,-2.2978 -3.2411,-2.2978 h -5.3054 z m 1.9112,-7.9449 h 3.1189 c 1.0398,0 1.6053,0.3376 1.6053,1.2722 0,0.8308 -0.688,1.2855 -1.6053,1.2855 h -3.1189 z"
                 style="fill:#1b1918;fill-rule:evenodd"
                 id="path16-2-3" />
              <path
                 d="m 263.3414,354.3559 c 0.2906,-2.0123 -1.2384,-3.9206 -3.7304,-3.9206 -2.3547,0 -3.8222,1.6356 -3.8222,3.5442 0,2.0639 1.3912,3.5311 3.8679,3.5311 1.7277,0 3.1955,-0.8181 3.5779,-2.285 h -1.6515 c -0.3056,0.7401 -0.9173,1.1166 -1.9264,1.1166 -1.4525,0 -2.1249,-0.9349 -2.1249,-1.9863 z m -5.8096,-0.9737 c 0.0456,-0.9995 0.8711,-1.7784 2.0792,-1.7784 1.1773,0 1.9262,0.8436 1.9874,1.7784 z"
                 style="fill:#1b1918;fill-rule:evenodd"
                 id="path17-1-5" />
              <path
                 d="m 264.7205,357.3286 h 1.743 v -3.9855 c 0,-1.1163 0.8254,-1.7393 1.7277,-1.7393 1.0548,0 1.3913,0.4932 1.3913,1.415 v 4.3098 h 1.743 v -3.9333 c 0,-1.1296 0.5043,-1.7915 1.6818,-1.7915 1.3603,0 1.4369,0.7398 1.4369,1.8042 v 3.9206 h 1.743 v -4.6343 c 0,-1.6359 -0.9785,-2.259 -2.645,-2.259 -1.1466,0 -1.8958,0.4284 -2.4767,1.1163 -0.3517,-0.7659 -1.2537,-1.1163 -2.2169,-1.1163 -1.2538,0 -1.9112,0.4544 -2.431,1.1163 h -0.0459 v -0.9346 h -1.6512 z"
                 style="fill:#1b1918;fill-rule:evenodd"
                 id="path18-6-9" />
              <path
                 d="m 277.9044,354.4985 h 4.449 v -1.402 h -4.449 z"
                 style="fill:#1b1918;fill-rule:evenodd"
                 id="path19-8-9" />
              <path
                 d="m 288.2123,349.6564 h 0.0306 0.0153 l 1.6359,3.9855 h -3.333 z m -5.1678,7.6722 h 1.9723 l 1.0245,-2.4534 h 4.3574 l 1.0244,2.4534 h 2.0486 l -4.2046,-9.269 h -2.0333 z"
                 style="fill:#1b1918;fill-rule:evenodd"
                 id="path20-5-8" />
              <path
                 d="m 294.3207,357.3286 h 1.743 v -3.9594 c 0,-0.9865 0.7492,-1.7654 1.9111,-1.7654 1.0242,0 1.5135,0.4541 1.5441,1.5057 v 4.2191 h 1.743 v -4.6085 c 0,-1.5058 -1.0857,-2.2848 -2.7981,-2.2848 -1.0395,0 -1.9417,0.4544 -2.4613,1.1946 l -0.0306,-0.0261 v -0.9868 h -1.6512 z"
                 style="fill:#1b1918;fill-rule:evenodd"
                 id="path21-7-1" />
              <path
                 d="m 303.1951,357.3286 h 1.7428 v -6.7116 h -1.7428 z m 0,-7.867 h 1.7428 v -1.402 h -1.7428 z"
                 style="fill:#1b1918;fill-rule:evenodd"
                 id="path22-6-8" />
              <path
                 d="m 306.8864,357.3286 h 1.7427 v -3.9855 c 0,-1.1163 0.8258,-1.7393 1.7278,-1.7393 1.055,0 1.3915,0.4932 1.3915,1.415 v 4.3098 h 1.7427 v -3.9333 c 0,-1.1296 0.5046,-1.7915 1.6818,-1.7915 1.3606,0 1.4372,0.7398 1.4372,1.8042 v 3.9206 h 1.743 v -4.6343 c 0,-1.6359 -0.9785,-2.259 -2.6453,-2.259 -1.1466,0 -1.8955,0.4284 -2.4766,1.1163 -0.3518,-0.7659 -1.2535,-1.1163 -2.2167,-1.1163 -1.2538,0 -1.9114,0.4544 -2.431,1.1163 h -0.0459 v -0.9346 h -1.6512 z"
                 style="fill:#1b1918;fill-rule:evenodd"
                 id="path23-1-2" />
              <path
                 d="m 325.1157,355.07 c 0,0.9346 -1.1928,1.2722 -1.957,1.2722 -0.6117,0 -1.6056,-0.1948 -1.6056,-0.8569 0,-0.779 0.673,-1.0126 1.4219,-1.1163 0.7645,-0.1171 1.6055,-0.1038 2.1407,-0.4025 z m 1.7428,-2.6873 c 0,-1.4153 -1.6206,-1.9474 -3.1649,-1.9474 -1.7428,0 -3.4705,0.5063 -3.5927,2.2329 h 1.7428 c 0.0765,-0.7268 0.7645,-1.0644 1.743,-1.0644 0.7033,0 1.6359,0.1428 1.6359,0.9088 0,0.8696 -1.116,0.7528 -2.3698,0.9473 -1.4678,0.1429 -3.0424,0.4156 -3.0424,2.0903 0,1.3113 1.2841,1.9604 2.7062,1.9604 0.9326,0 2.0486,-0.2469 2.7366,-0.8181 0.1378,0.6103 0.642,0.8181 1.3453,0.8181 0.2906,0 0.8411,-0.091 1.101,-0.1689 v -1.0256 c -0.1837,0.0261 -0.3212,0.0261 -0.428,0.0261 -0.3212,0 -0.413,-0.1429 -0.413,-0.5066 z"
                 style="fill:#1b1918;fill-rule:evenodd"
                 id="path24-8-6" />
              <path
                 d="m 328.8339,357.3286 h 1.743 v -9.269 h -1.743 z"
                 style="fill:#1b1918;fill-rule:evenodd"
                 id="path25-9-6" />
            </g>
          </g>
        </g>
        <g
           id="Layer1006-2-0">
          <g
             id="Layer1007-7-3">
            <path
               d="m 137.2884,278.4543 c 0,-3.5886 2.9095,-6.4981 6.4982,-6.4981 3.5889,0 6.4981,2.9095 6.4981,6.4981 0,3.589 -2.9092,6.4982 -6.4981,6.4982 -3.5887,0 -6.4982,-2.9092 -6.4982,-6.4982 z"
               style="fill:#1b1918;fill-rule:evenodd"
               id="path26-9-8" />
          </g>
          <g
             id="Layer1008-5-0">
            <path
               d="m 150.5211,268.321 c 0,-3.5889 2.9092,-6.4981 6.4981,-6.4981 3.5887,0 6.4982,2.9092 6.4982,6.4981 0,3.589 -2.9095,6.4982 -6.4982,6.4982 -3.5889,0 -6.4981,-2.9092 -6.4981,-6.4982 z"
               style="fill:#1b1918;fill-rule:evenodd"
               id="path27-4-1" />
          </g>
          <g
             id="Layer1009-3-2">
            <path
               d="m 165.4569,267.719 c 0,-3.589 2.9094,-6.4985 6.4981,-6.4985 3.5889,0 6.4981,2.9095 6.4981,6.4985 0,3.5886 -2.9092,6.4978 -6.4981,6.4978 -3.5887,0 -6.4981,-2.9092 -6.4981,-6.4978 z"
               style="fill:#1b1918;fill-rule:evenodd"
               id="path28-1-5" />
          </g>
          <g
             id="Layer1010-2-0">
            <path
               d="m 178.3619,277.8523 c 0,-3.589 2.9092,-6.4982 6.4981,-6.4982 3.5889,0 6.4981,2.9092 6.4981,6.4982 0,3.5886 -2.9092,6.4981 -6.4981,6.4981 -3.5889,0 -6.4981,-2.9095 -6.4981,-6.4981 z"
               style="fill:#1b1918;fill-rule:evenodd"
               id="path29-3-9" />
          </g>
          <g
             id="Layer1011-3-4">
            <path
               d="m 146.8159,295.6535 c 0,-9.9677 8.0805,-18.0479 18.0482,-18.0479 9.9675,0 18.0479,8.0802 18.0479,18.0479 0,9.9678 -8.0804,18.0479 -18.0479,18.0479 -9.9677,0 -18.0482,-8.0801 -18.0482,-18.0479 z"
               style="fill:#1b1918;fill-rule:evenodd"
               id="path30-4-7" />
          </g>
        </g>
      </g>
    </g>
    <g
       id="Layer1021-5"
       transform="matrix(1.959309,0,0,1.9653517,428.78722,-599.47204)">
      <g
         id="Layer1022-0">
        <g
           id="Layer1023-9">
          <path
             d="m 165.0328,457.2867 c -13.6936,-0.2698 -25.4203,4.2016 -35.1825,13.421 -9.7591,9.2191 -14.7739,20.6756 -15.0437,34.3695 -0.273,13.6939 4.335,25.2839 13.8242,34.7762 9.4924,9.4893 21.0824,14.3703 34.776,14.6404 13.6939,0.273 25.4206,-4.2018 35.1828,-13.4209 9.7591,-9.3557 14.7767,-20.8122 15.0469,-34.3698 0.2729,-13.5572 -4.4065,-25.0821 -14.0321,-34.5713 -9.4893,-9.6256 -21.0141,-14.5749 -34.5716,-14.8451 z"
             style="fill:#1b1918;fill-rule:evenodd"
             id="path47-0" />
          <path
             d="m 268.933,484.1249 c 0,-6.4137 -2.1172,-12.058 -6.349,-16.9359 -4.2347,-4.875 -9.559,-7.8264 -15.9758,-8.8515 l -34.4477,-1.1571 5.3861,96.2306 h 13.8583 c 1.4094,0.2585 2.8222,0.3878 4.2347,0.3878 7.3125,0 13.5354,-2.5022 18.6687,-7.5065 5.1304,-5.004 7.6971,-11.1622 7.6971,-18.4776 0,-7.8264 -2.9514,-14.3694 -8.8543,-19.6322 4.7489,-2.0525 8.5343,-5.2597 11.3565,-9.6205 2.9514,-4.3639 4.4254,-9.1743 4.4254,-14.4371 z m -30.022,1.9267 c 4.1057,0.2554 6.1583,2.5018 6.1583,6.7368 0,1.9233 -0.7693,3.5269 -2.3111,4.8101 -1.4097,1.2835 -3.0779,1.7975 -5.0043,1.5389 z m 6.734,42.1478 c -1.9236,4.1054 -4.875,5.8382 -8.8515,5.1979 l 1.1543,-21.3648 c 2.5668,0.2586 4.684,1.5421 6.3522,3.8501 1.6679,2.1821 2.5021,4.6196 2.5021,7.3125 0,1.6682 -0.3849,3.3361 -1.1571,5.0043 z"
             style="fill:#1b1918;fill-rule:evenodd"
             id="path48-0" />
          <path
             d="m 309.4662,550.5367 23.7895,0.5502 c -2.0719,-14.5214 -4.6355,-27.6965 -7.685,-39.5314 -6.9534,-27.2078 -14.8255,-43.0081 -23.6081,-47.4007 -5.3702,5.9788 -10.3102,12.7508 -14.8257,20.3131 -10.98,18.3021 -19.1538,39.1654 -24.5212,62.5921 l 29.6456,2.745 c 0.6115,-2.8065 1.2818,-5.7974 2.0135,-8.9668 l 14.4598,-1.4661 c 0.2429,2.1977 0.4858,5.9173 0.7316,11.1646 z m -11.1648,-25.2559 c 0.8546,-2.9293 2.3794,-7.8692 4.5743,-14.8229 1.5862,4.1471 2.9293,9.21 4.0269,15.1889 z"
             style="fill:#0f140e;fill-rule:evenodd"
             id="path49-6" />
          <path
             d="m 360.9904,526.1023 6.8182,-83.8043 -32.8218,0.8467 6.5463,81.9431 z m -10.8297,1.5231 c -4.1718,0.3381 -7.613,2.086 -10.3184,5.2432 -2.5946,3.1598 -3.7228,6.8255 -3.3846,10.9976 0.3382,4.1743 2.086,7.613 5.2458,10.3209 3.1572,2.5946 6.823,3.7228 10.9976,3.3846 4.058,-0.3407 7.4426,-2.0886 10.1506,-5.2458 2.7056,-3.1572 3.8905,-6.7689 3.5523,-10.8269 -0.3381,-4.1746 -2.086,-7.6133 -5.2458,-10.3213 -3.1572,-2.7082 -6.823,-3.8905 -10.9975,-3.5523 z"
             style="fill:#1b1918;fill-rule:evenodd"
             id="path50-1" />
          <g
             id="Layer1024-3">
            <g
               id="Layer1025-8">
              <path
                 d="m 156.1592,563.7053 c -3.272,0 -5.2291,2.207 -5.2291,4.8555 0,2.6481 1.9571,4.8551 5.2291,4.8551 3.2715,0 5.2285,-2.207 5.2285,-4.8551 0,-2.6485 -1.957,-4.8555 -5.2285,-4.8555 z m 0,1.3243 c 2.3392,0 3.3174,1.7524 3.3174,3.5312 0,1.7784 -0.9782,3.5308 -3.3174,3.5308 -2.3394,0 -3.3179,-1.7524 -3.3179,-3.5308 0,-1.7788 0.9785,-3.5312 3.3179,-3.5312 z"
                 style="fill:#1b1918;fill-rule:evenodd"
                 id="path51-9" />
              <path
                 d="m 162.9363,573.1951 h 1.743 v -3.1935 c 0,-1.48 0.9479,-2.2978 2.1404,-2.2978 0.2447,0 0.5046,0.0389 0.7495,0.065 v -1.4281 c -0.1533,-0.0131 -0.2602,-0.0392 -0.6576,-0.0392 -1.0704,0 -2.1098,0.7662 -2.3085,1.48 h -0.0307 v -1.298 h -1.6361 z"
                 style="fill:#1b1918;fill-rule:evenodd"
                 id="path52-3" />
              <path
                 d="m 171.8059,572.027 c -1.4525,0 -2.0795,-1.1166 -2.0795,-2.2201 0,-1.1163 0.5352,-2.3366 2.0795,-2.3366 1.5134,0 2.1251,1.0644 2.1251,2.2198 0,1.1423 -0.5811,2.3369 -2.1251,2.3369 z m 3.8679,-5.5435 h -1.7428 v 0.9219 h -0.0306 c -0.4433,-0.7532 -1.3456,-1.1039 -2.3394,-1.1039 -2.2476,0 -3.5773,1.5582 -3.5773,3.3625 0,1.9216 1.0394,3.5311 3.5467,3.5311 0.9785,0 1.8807,-0.4413 2.37,-1.1812 h 0.0306 v 1.0256 c 0,1.1032 -0.627,1.7135 -2.0336,1.7135 -0.8866,0 -1.6817,-0.1428 -1.8955,-0.9864 h -1.7433 c 0.1531,1.5707 1.9417,2.09 3.5317,2.09 2.4925,0 3.8835,-0.9995 3.8835,-3.0118 z"
                 style="fill:#1b1918;fill-rule:evenodd"
                 id="path53-4" />
              <path
                 d="m 182.3598,570.9365 c 0,0.9346 -1.1925,1.2722 -1.9567,1.2722 -0.6117,0 -1.6058,-0.1948 -1.6058,-0.857 0,-0.7789 0.6729,-1.0125 1.4221,-1.1162 0.7645,-0.1171 1.6053,-0.1041 2.1404,-0.4026 z m 1.7428,-2.6873 c 0,-1.4153 -1.6206,-1.9477 -3.1646,-1.9477 -1.743,0 -3.4705,0.5066 -3.5929,2.2332 h 1.7427 c 0.0765,-0.7268 0.7645,-1.0644 1.7433,-1.0644 0.703,0 1.6359,0.1428 1.6359,0.9085 0,0.8699 -1.1163,0.7531 -2.3698,0.9479 -1.468,0.1426 -3.0427,0.4153 -3.0427,2.09 0,1.3113 1.2844,1.9604 2.7063,1.9604 0.9326,0 2.0486,-0.2469 2.7368,-0.8181 0.1375,0.6103 0.6418,0.8181 1.3453,0.8181 0.2903,0 0.8411,-0.091 1.1007,-0.1689 v -1.0256 c -0.1834,0.0261 -0.3211,0.0261 -0.428,0.0261 -0.3212,0 -0.413,-0.1429 -0.413,-0.5063 z"
                 style="fill:#1b1918;fill-rule:evenodd"
                 id="path54-4" />
              <path
                 d="m 186.0321,573.1951 h 1.743 v -3.9594 c 0,-0.9865 0.7495,-1.7654 1.9112,-1.7654 1.0244,0 1.5137,0.4541 1.544,1.5057 v 4.2191 h 1.7433 v -4.6085 c 0,-1.5058 -1.0859,-2.2851 -2.7981,-2.2851 -1.0397,0 -1.9417,0.4547 -2.4616,1.1946 l -0.0303,-0.0258 v -0.9868 h -1.6515 z"
                 style="fill:#1b1918;fill-rule:evenodd"
                 id="path55-6" />
              <path
                 d="m 194.9066,573.1951 h 1.743 v -6.7116 h -1.743 z m 0,-7.867 h 1.743 v -1.402 h -1.743 z"
                 style="fill:#1b1918;fill-rule:evenodd"
                 id="path56-0" />
              <path
                 d="m 198.3229,567.652 h 4.0665 l -4.3724,4.5048 v 1.0383 h 6.9565 v -1.1681 h -4.7551 l 4.5258,-4.5049 v -1.0386 h -6.4213 z"
                 style="fill:#1b1918;fill-rule:evenodd"
                 id="path57-6" />
              <path
                 d="m 211.1737,570.9365 c 0,0.9346 -1.1925,1.2722 -1.9567,1.2722 -0.6117,0 -1.6056,-0.1948 -1.6056,-0.857 0,-0.7789 0.673,-1.0125 1.4219,-1.1162 0.7645,-0.1171 1.6055,-0.1041 2.1404,-0.4026 z m 1.7431,-2.6873 c 0,-1.4153 -1.6206,-1.9477 -3.1649,-1.9477 -1.7428,0 -3.4705,0.5066 -3.5929,2.2332 h 1.743 c 0.0765,-0.7268 0.7645,-1.0644 1.743,-1.0644 0.7033,0 1.6359,0.1428 1.6359,0.9085 0,0.8699 -1.116,0.7531 -2.3698,0.9479 -1.4678,0.1426 -3.0424,0.4153 -3.0424,2.09 0,1.3113 1.2841,1.9604 2.7059,1.9604 0.9329,0 2.0489,-0.2469 2.7369,-0.8181 0.1375,0.6103 0.642,0.8181 1.3453,0.8181 0.2906,0 0.8411,-0.091 1.101,-0.1689 v -1.0256 c -0.1837,0.0261 -0.3212,0.0261 -0.428,0.0261 -0.3215,0 -0.413,-0.1429 -0.413,-0.5063 z"
                 style="fill:#1b1918;fill-rule:evenodd"
                 id="path58-6" />
              <path
                 d="m 216.4822,575.7917 c 0.3974,0.1947 1.1163,0.2724 1.5749,0.2724 0.8867,0 1.8499,-0.2855 1.8499,-1.1685 0,-0.6619 -0.7033,-0.9604 -1.2997,-0.9604 -0.2293,0 -0.3821,0 -0.5046,0.0389 v -0.0258 l 0.688,-0.7532 h -0.7336 l -1.0094,1.1424 0.3365,0.2466 c 0.1836,-0.0907 0.3977,-0.1295 0.5964,-0.1295 0.3362,0 0.7032,0.1686 0.7032,0.4932 0,0.4413 -0.5045,0.532 -0.9326,0.532 -0.3364,0 -0.6729,-0.1165 -0.9938,-0.2075 z m 5.4428,-7.0623 c -0.1681,-1.6486 -1.7275,-2.4279 -3.5623,-2.4279 -2.5991,0 -3.8985,1.584 -3.8985,3.6091 0,1.9735 1.3606,3.4665 3.8372,3.4665 2.0336,0 3.3027,-0.9607 3.6236,-2.7006 h -1.743 c -0.1681,0.961 -0.8714,1.5322 -1.8806,1.5322 -1.5134,0 -2.0945,-1.1815 -2.0945,-2.2981 0,-2.0381 1.2691,-2.4403 2.1711,-2.4403 0.9632,0 1.6665,0.4413 1.804,1.2591 z"
                 style="fill:#1b1918;fill-rule:evenodd"
                 id="path59-1" />
              <path
                 d="m 228.5787,563.9261 c -0.1068,0.3373 -0.3208,0.5712 -0.7642,0.5712 -0.2905,0 -0.5964,-0.1298 -0.9479,-0.2466 -0.3518,-0.1298 -0.7492,-0.2466 -1.2387,-0.2466 -0.9323,0 -1.4675,0.8047 -1.5897,1.4669 h 0.8711 c 0,-0.2466 0.2905,-0.5324 0.6423,-0.5324 0.2906,0 0.6574,0.1168 1.0551,0.2336 0.3821,0.1298 0.7951,0.2466 1.1313,0.2466 0.5505,0 0.9326,-0.1686 1.1925,-0.441 0.2753,-0.26 0.4281,-0.6364 0.5046,-1.0517 z m -0.3058,7.0104 c 0,0.9346 -1.1926,1.2722 -1.9568,1.2722 -0.6117,0 -1.6055,-0.1948 -1.6055,-0.857 0,-0.7789 0.6729,-1.0125 1.4221,-1.1162 0.7645,-0.1171 1.6053,-0.1041 2.1402,-0.4026 z m 1.743,-2.6873 c 0,-1.4153 -1.6206,-1.9477 -3.1649,-1.9477 -1.7427,0 -3.4704,0.5066 -3.5929,2.2332 h 1.743 c 0.0766,-0.7268 0.7645,-1.0644 1.7431,-1.0644 0.7032,0 1.6358,0.1428 1.6358,0.9085 0,0.8699 -1.116,0.7531 -2.3697,0.9479 -1.4678,0.1426 -3.0427,0.4153 -3.0427,2.09 0,1.3113 1.2843,1.9604 2.7062,1.9604 0.9329,0 2.0489,-0.2469 2.7368,-0.8181 0.1378,0.6103 0.6421,0.8181 1.3454,0.8181 0.2905,0 0.841,-0.091 1.1009,-0.1689 v -1.0256 c -0.1836,0.0261 -0.3211,0.0261 -0.428,0.0261 -0.3214,0 -0.413,-0.1429 -0.413,-0.5063 z"
                 style="fill:#1b1918;fill-rule:evenodd"
                 id="path60-8" />
              <path
                 d="m 235.569,572.2087 c -1.5594,0 -2.2476,-1.2076 -2.2476,-2.3758 0,-1.1556 0.6882,-2.3626 2.2476,-2.3626 1.5596,0 2.2473,1.207 2.2473,2.3626 0,1.1682 -0.6877,2.3758 -2.2473,2.3758 z m 0,1.1684 c 2.5378,0 3.9903,-1.4802 3.9903,-3.5442 0,-2.0514 -1.4525,-3.5314 -3.9903,-3.5314 -2.5379,0 -3.9906,1.48 -3.9906,3.5314 0,2.064 1.4527,3.5442 3.9906,3.5442 z"
                 style="fill:#1b1918;fill-rule:evenodd"
                 id="path61-4" />
              <path
                 d="m 247.5128,568.976 h 3.3789 c 1.1619,0 1.8348,0.5193 1.8348,1.4281 0,0.9346 -0.6729,1.467 -1.8348,1.467 h -3.3789 z m -1.9112,4.2191 h 5.0148 c 2.8284,0 4.021,-1.1293 4.021,-2.5835 0,-1.2591 -0.7186,-2.1418 -2.0486,-2.3885 v -0.0257 c 0.9938,-0.3637 1.5593,-1.0387 1.5593,-1.9735 0,-1.5449 -1.2844,-2.2978 -3.2411,-2.2978 h -5.3054 z m 1.9112,-7.9449 h 3.1189 c 1.0398,0 1.6053,0.3376 1.6053,1.2722 0,0.8311 -0.688,1.2855 -1.6053,1.2855 h -3.1189 z"
                 style="fill:#1b1918;fill-rule:evenodd"
                 id="path62-9" />
              <path
                 d="m 263.3414,570.2221 c 0.2906,-2.012 -1.2384,-3.9206 -3.7304,-3.9206 -2.3547,0 -3.8222,1.6359 -3.8222,3.5445 0,2.0642 1.3912,3.5311 3.8679,3.5311 1.7277,0 3.1955,-0.8181 3.5779,-2.285 h -1.6515 c -0.3056,0.7401 -0.9173,1.1166 -1.9264,1.1166 -1.4525,0 -2.1249,-0.9346 -2.1249,-1.9866 z m -5.8096,-0.9734 c 0.0456,-0.9995 0.8711,-1.7784 2.0792,-1.7784 1.1773,0 1.9262,0.8436 1.9874,1.7784 z"
                 style="fill:#1b1918;fill-rule:evenodd"
                 id="path63-6" />
              <path
                 d="m 264.7205,573.1951 h 1.743 v -3.9855 c 0,-1.1163 0.8254,-1.7393 1.7277,-1.7393 1.0548,0 1.3913,0.4932 1.3913,1.4147 v 4.3101 h 1.743 v -3.9333 c 0,-1.1296 0.5043,-1.7915 1.6818,-1.7915 1.3603,0 1.4369,0.7398 1.4369,1.8042 v 3.9206 h 1.743 v -4.6343 c 0,-1.6359 -0.9785,-2.2593 -2.645,-2.2593 -1.1466,0 -1.8958,0.4286 -2.4767,1.1166 -0.3517,-0.7659 -1.2537,-1.1166 -2.2169,-1.1166 -1.2538,0 -1.9112,0.4547 -2.431,1.1166 h -0.0459 v -0.9346 h -1.6512 z"
                 style="fill:#1b1918;fill-rule:evenodd"
                 id="path64-3" />
              <path
                 d="m 277.9044,570.365 h 4.449 v -1.402 h -4.449 z"
                 style="fill:#1b1918;fill-rule:evenodd"
                 id="path65-7" />
              <path
                 d="m 288.2123,565.5229 h 0.0306 0.0153 l 1.6359,3.9855 h -3.333 z m -5.1678,7.6722 h 1.9723 l 1.0245,-2.4534 h 4.3574 l 1.0244,2.4534 h 2.0486 l -4.2046,-9.269 h -2.0333 z"
                 style="fill:#1b1918;fill-rule:evenodd"
                 id="path66-8" />
              <path
                 d="m 294.3207,573.1951 h 1.743 v -3.9594 c 0,-0.9865 0.7492,-1.7654 1.9111,-1.7654 1.0242,0 1.5135,0.4541 1.5441,1.5057 v 4.2191 h 1.743 v -4.6085 c 0,-1.5058 -1.0857,-2.2851 -2.7981,-2.2851 -1.0395,0 -1.9417,0.4547 -2.4613,1.1946 l -0.0306,-0.0258 v -0.9868 h -1.6512 z"
                 style="fill:#1b1918;fill-rule:evenodd"
                 id="path67-8" />
              <path
                 d="m 303.1951,573.1951 h 1.7428 v -6.7116 h -1.7428 z m 0,-7.867 h 1.7428 v -1.402 h -1.7428 z"
                 style="fill:#1b1918;fill-rule:evenodd"
                 id="path68-2" />
              <path
                 d="m 306.8864,573.1951 h 1.7427 v -3.9855 c 0,-1.1163 0.8258,-1.7393 1.7278,-1.7393 1.055,0 1.3915,0.4932 1.3915,1.4147 v 4.3101 h 1.7427 v -3.9333 c 0,-1.1296 0.5046,-1.7915 1.6818,-1.7915 1.3606,0 1.4372,0.7398 1.4372,1.8042 v 3.9206 h 1.743 v -4.6343 c 0,-1.6359 -0.9785,-2.2593 -2.6453,-2.2593 -1.1466,0 -1.8955,0.4286 -2.4766,1.1166 -0.3518,-0.7659 -1.2535,-1.1166 -2.2167,-1.1166 -1.2538,0 -1.9114,0.4547 -2.431,1.1166 h -0.0459 v -0.9346 h -1.6512 z"
                 style="fill:#1b1918;fill-rule:evenodd"
                 id="path69-9" />
              <path
                 d="m 325.1157,570.9365 c 0,0.9346 -1.1928,1.2722 -1.957,1.2722 -0.6117,0 -1.6056,-0.1948 -1.6056,-0.857 0,-0.7789 0.673,-1.0125 1.4219,-1.1162 0.7645,-0.1171 1.6055,-0.1041 2.1407,-0.4026 z m 1.7428,-2.6873 c 0,-1.4153 -1.6206,-1.9477 -3.1649,-1.9477 -1.7428,0 -3.4705,0.5066 -3.5927,2.2332 h 1.7428 c 0.0765,-0.7268 0.7645,-1.0644 1.743,-1.0644 0.7033,0 1.6359,0.1428 1.6359,0.9085 0,0.8699 -1.116,0.7531 -2.3698,0.9479 -1.4678,0.1426 -3.0424,0.4153 -3.0424,2.09 0,1.3113 1.2841,1.9604 2.7062,1.9604 0.9326,0 2.0486,-0.2469 2.7366,-0.8181 0.1378,0.6103 0.642,0.8181 1.3453,0.8181 0.2906,0 0.8411,-0.091 1.101,-0.1689 v -1.0256 c -0.1837,0.0261 -0.3212,0.0261 -0.428,0.0261 -0.3212,0 -0.413,-0.1429 -0.413,-0.5063 z"
                 style="fill:#1b1918;fill-rule:evenodd"
                 id="path70-1" />
              <path
                 d="m 328.8339,573.1951 h 1.743 v -9.269 h -1.743 z"
                 style="fill:#1b1918;fill-rule:evenodd"
                 id="path71-3" />
            </g>
          </g>
        </g>
        <g
           id="Layer1026-5">
          <g
             id="Layer1027-9">
            <path
               d="m 137.2884,494.3208 c 0,-3.5886 2.9095,-6.4981 6.4982,-6.4981 3.5889,0 6.4981,2.9095 6.4981,6.4981 0,3.589 -2.9092,6.4982 -6.4981,6.4982 -3.5887,0 -6.4982,-2.9092 -6.4982,-6.4982 z"
               style="fill:#ffffff;fill-rule:evenodd"
               id="path72-8" />
          </g>
          <g
             id="Layer1028-4">
            <path
               d="m 150.5211,484.1875 c 0,-3.5889 2.9092,-6.4981 6.4981,-6.4981 3.5887,0 6.4982,2.9092 6.4982,6.4981 0,3.589 -2.9095,6.4982 -6.4982,6.4982 -3.5889,0 -6.4981,-2.9092 -6.4981,-6.4982 z"
               style="fill:#ffffff;fill-rule:evenodd"
               id="path73-0" />
          </g>
          <g
             id="Layer1029-7">
            <path
               d="m 165.4569,483.5854 c 0,-3.5889 2.9094,-6.4984 6.4981,-6.4984 3.5889,0 6.4981,2.9095 6.4981,6.4984 0,3.5887 -2.9092,6.4982 -6.4981,6.4982 -3.5887,0 -6.4981,-2.9095 -6.4981,-6.4982 z"
               style="fill:#ffffff;fill-rule:evenodd"
               id="path74-6" />
          </g>
          <g
             id="Layer1030-3">
            <path
               d="m 178.3619,493.7187 c 0,-3.5889 2.9092,-6.4981 6.4981,-6.4981 3.5889,0 6.4981,2.9092 6.4981,6.4981 0,3.5887 -2.9092,6.4982 -6.4981,6.4982 -3.5889,0 -6.4981,-2.9095 -6.4981,-6.4982 z"
               style="fill:#ffffff;fill-rule:evenodd"
               id="path75-6" />
          </g>
          <g
             id="Layer1031-1">
            <path
               d="m 146.8159,511.52 c 0,-9.9677 8.0805,-18.0479 18.0482,-18.0479 9.9675,0 18.0479,8.0802 18.0479,18.0479 0,9.9678 -8.0804,18.0479 -18.0479,18.0479 -9.9677,0 -18.0482,-8.0801 -18.0482,-18.0479 z"
               style="fill:#ffffff;fill-rule:evenodd"
               id="path76-5" />
          </g>
        </g>
      </g>
    </g>
  </g>
</svg>
