<?xml version="1.0" encoding="UTF-8" standalone="no"?>
<svg
   class="ionicon"
   viewBox="0 0 512 512"
   version="1.1"
   id="svg1"
   sodipodi:docname="call.svg"
   inkscape:version="1.4.2 (f4327f4, 2025-05-13)"
   xmlns:inkscape="http://www.inkscape.org/namespaces/inkscape"
   xmlns:sodipodi="http://sodipodi.sourceforge.net/DTD/sodipodi-0.dtd"
   xmlns="http://www.w3.org/2000/svg"
   xmlns:svg="http://www.w3.org/2000/svg">
  <defs
     id="defs1" />
  <sodipodi:namedview
     id="namedview1"
     pagecolor="#ffffff"
     bordercolor="#000000"
     borderopacity="0.25"
     inkscape:showpageshadow="2"
     inkscape:pageopacity="0.0"
     inkscape:pagecheckerboard="0"
     inkscape:deskcolor="#d1d1d1"
     inkscape:zoom="1.5097656"
     inkscape:cx="261.96119"
     inkscape:cy="284.48124"
     inkscape:window-width="1920"
     inkscape:window-height="991"
     inkscape:window-x="-9"
     inkscape:window-y="-9"
     inkscape:window-maximized="1"
     inkscape:current-layer="svg1" />
  <path
     style="fill:#ffffff;fill-opacity:1;stroke:#000000;stroke-width:0;stroke-dasharray:none;stroke-opacity:1"
     d="m 391,480 c -19.52,0 -46.94,-7.06 -88,-30 C 253.07,422 214.45,396.15 164.79,346.62 116.91,298.77 93.61,267.79 61,208.45 24.16,141.45 30.44,106.33 37.46,91.32 45.82,73.38 58.16,62.65 74.11,52 c 9.059501,-5.935645 18.646702,-11.023824 28.64,-15.2 1,-0.43 1.93,-0.84 2.76,-1.21 4.95,-2.23 12.45,-5.6 21.95,-2 6.34,2.38 12,7.25 20.86,16 18.17,17.92 43,57.83 52.16,77.43 6.15,13.21 10.22,21.93 10.23,31.71 0,11.45 -5.76,20.28 -12.75,29.81 -1.31,1.79 -2.61,3.5 -3.87,5.16 -7.61,10 -49.68362,28.12415 -48.58362,33.28415 2.23,10.37 18.86,41.24 46.19,68.51 27.33,27.27 73.86886,68.01947 84.27886,70.23947 5.38,1.15 32.17476,-40.99362 42.49476,-48.87362 1.48,-1.13 3,-2.3 4.59,-3.47 10.66,-7.93 19.08,-13.54 30.26,-13.54 h 0.06 c 9.73,0 18.06,4.22 31.86,11.18 18,9.08 59.11,33.59 77.14,51.78 8.77,8.84 13.66,14.48 16.05,20.81 3.6,9.53 0.21,17 -2,22 -0.37,0.83 -0.78,1.74 -1.21,2.75 -4.20922,9.9755 -9.32747,19.5425 -15.29,28.58 -10.63,15.9 -21.4,28.21 -39.38,36.58 -9.23277,4.3671 -19.33708,6.57945 -29.55,6.47 z"
     id="path1"
     sodipodi:nodetypes="cccccccccccccccscscsscccccccc" />
</svg>
